<svg xmlns="http://www.w3.org/2000/svg" viewBox="0 0 100 100">
  <circle cx="50" cy="50" r="45" fill="none" stroke="#60a5fa" stroke-width="2"/>
  <circle cx="50" cy="50" r="4" fill="#60a5fa"/>
  <circle cx="30" cy="35" r="3" fill="#60a5fa" opacity="0.7"/>
  <circle cx="70" cy="35" r="3" fill="#60a5fa" opacity="0.7"/>
  <circle cx="35" cy="68" r="3" fill="#60a5fa" opacity="0.7"/>
  <circle cx="65" cy="68" r="3" fill="#60a5fa" opacity="0.7"/>
  <circle cx="25" cy="52" r="2.5" fill="#60a5fa" opacity="0.5"/>
  <circle cx="75" cy="52" r="2.5" fill="#60a5fa" opacity="0.5"/>
  <line x1="50" y1="50" x2="30" y2="35" stroke="#60a5fa" stroke-width="1" opacity="0.4"/>
  <line x1="50" y1="50" x2="70" y2="35" stroke="#60a5fa" stroke-width="1" opacity="0.4"/>
  <line x1="50" y1="50" x2="35" y2="68" stroke="#60a5fa" stroke-width="1" opacity="0.4"/>
  <line x1="50" y1="50" x2="65" y2="68" stroke="#60a5fa" stroke-width="1" opacity="0.4"/>
  <line x1="50" y1="50" x2="25" y2="52" stroke="#60a5fa" stroke-width="1" opacity="0.3"/>
  <line x1="50" y1="50" x2="75" y2="52" stroke="#60a5fa" stroke-width="1" opacity="0.3"/>
  <line x1="30" y1="35" x2="70" y2="35" stroke="#60a5fa" stroke-width="0.5" opacity="0.2"/>
  <line x1="35" y1="68" x2="65" y2="68" stroke="#60a5fa" stroke-width="0.5" opacity="0.2"/>
  <line x1="30" y1="35" x2="25" y2="52" stroke="#60a5fa" stroke-width="0.5" opacity="0.2"/>
  <line x1="70" y1="35" x2="75" y2="52" stroke="#60a5fa" stroke-width="0.5" opacity="0.2"/>
</svg>
